<svg width="1232" height="600" viewBox="0 0 1232 600" fill="none" xmlns="http://www.w3.org/2000/svg">
<rect width="1232" height="600" fill="white"/>
<path d="M178.576 312.3V350.833L155.688 334.167V295.633L178.576 312.3Z" fill="#C41C28"/>
<path d="M178.576 351.111C178.499 351.111 178.428 351.089 178.37 351.044L155.482 334.378C155.412 334.328 155.367 334.244 155.367 334.167V295.633C155.367 295.528 155.437 295.428 155.553 295.383C155.668 295.339 155.797 295.355 155.893 295.422L178.781 312.089C178.852 312.139 178.897 312.222 178.897 312.3V350.833C178.897 350.939 178.826 351.039 178.711 351.083C178.666 351.1 178.621 351.111 178.576 351.111ZM156.008 334.039L178.255 350.239V312.433L156.008 296.233V334.039Z" fill="black"/>
<path d="M197.858 287.156L220.74 303.822L178.576 312.3L155.688 295.633L197.858 287.156Z" fill="#FF7E88"/>
<path d="M178.576 312.578C178.499 312.578 178.428 312.556 178.37 312.511L155.482 295.844C155.392 295.778 155.347 295.667 155.379 295.567C155.405 295.467 155.501 295.383 155.617 295.361L197.787 286.883C197.89 286.867 197.986 286.883 198.07 286.939L220.951 303.606C221.041 303.672 221.086 303.783 221.054 303.883C221.028 303.983 220.932 304.067 220.817 304.089L178.653 312.567C178.653 312.567 178.601 312.572 178.582 312.572L178.576 312.578ZM156.387 295.778L178.659 312L220.04 303.678L197.774 287.456L156.387 295.778Z" fill="black"/>
<path d="M435.775 260.589L412.893 265.189L393.143 269.161V247.894L412.893 243.922L435.775 260.589Z" fill="#FF7E88"/>
<path d="M393.143 269.439C393.072 269.439 393.002 269.417 392.944 269.378C392.867 269.328 392.822 269.244 392.822 269.161V247.894C392.822 247.767 392.925 247.655 393.072 247.622L412.823 243.65C412.925 243.628 413.022 243.65 413.105 243.705L435.987 260.372C436.077 260.439 436.122 260.55 436.089 260.65C436.064 260.75 435.968 260.833 435.852 260.855L393.22 269.428C393.22 269.428 393.168 269.433 393.149 269.433L393.143 269.439ZM393.464 248.117V268.811L435.076 260.444L412.81 244.222L393.464 248.111V248.117Z" fill="black"/>
<path d="M393.143 120.05L370.254 124.656L348.829 128.967L325.947 112.3L370.254 103.383L393.143 120.05Z" fill="#FF7E88"/>
<path d="M348.829 129.244C348.752 129.244 348.682 129.222 348.624 129.178L325.742 112.511C325.652 112.444 325.607 112.333 325.639 112.233C325.665 112.133 325.761 112.05 325.877 112.028L370.184 103.111C370.28 103.089 370.383 103.111 370.466 103.167L393.354 119.833C393.444 119.9 393.489 120.011 393.457 120.111C393.431 120.211 393.335 120.294 393.22 120.317L348.906 129.233C348.906 129.233 348.855 129.239 348.836 129.239L348.829 129.244ZM326.647 112.444L348.913 128.667L392.443 119.906L370.171 103.683L326.647 112.444Z" fill="black"/>
<path d="M348.829 128.967V169.85L325.947 153.183V112.3L348.829 128.967Z" fill="#C41C28"/>
<path d="M348.829 170.128C348.752 170.128 348.682 170.106 348.624 170.061L325.742 153.394C325.671 153.344 325.627 153.261 325.627 153.183V112.3C325.627 112.194 325.697 112.094 325.813 112.05C325.922 112.006 326.056 112.022 326.153 112.089L349.035 128.756C349.105 128.806 349.15 128.889 349.15 128.967V169.85C349.15 169.956 349.079 170.056 348.964 170.1C348.919 170.117 348.874 170.128 348.829 170.128ZM326.268 153.056L348.508 169.256V129.1L326.268 112.9V153.056Z" fill="black"/>
<path d="M348.829 278.072L325.947 282.672L263.436 295.239V273.972L306.133 265.389L325.947 261.4L348.829 278.072Z" fill="#FF7E88"/>
<path d="M263.436 295.517C263.366 295.517 263.295 295.494 263.237 295.456C263.16 295.406 263.115 295.322 263.115 295.239V273.972C263.115 273.844 263.218 273.733 263.366 273.7L325.877 261.128C325.973 261.111 326.076 261.128 326.159 261.183L349.041 277.856C349.131 277.922 349.176 278.033 349.144 278.133C349.118 278.233 349.022 278.317 348.906 278.339L263.513 295.506C263.513 295.506 263.462 295.511 263.443 295.511L263.436 295.517ZM263.757 274.194V294.889L348.13 277.928L325.864 261.7L263.757 274.189V274.194Z" fill="black"/>
<path d="M348.829 205.917V278.072L325.947 261.4V210.522L348.829 205.917Z" fill="#C41C28"/>
<path d="M348.829 278.35C348.752 278.35 348.682 278.328 348.624 278.283L325.742 261.611C325.671 261.555 325.627 261.478 325.627 261.4V210.522C325.627 210.394 325.729 210.283 325.877 210.25L348.759 205.644C348.855 205.628 348.951 205.644 349.028 205.7C349.105 205.75 349.15 205.833 349.15 205.917V278.072C349.15 278.178 349.079 278.278 348.964 278.322C348.919 278.339 348.874 278.35 348.829 278.35ZM326.268 261.272L348.508 277.478V206.267L326.268 210.744V261.272Z" fill="black"/>
<path d="M348.829 316.367V391.039L325.947 374.372V321L348.829 316.367Z" fill="#C41C28"/>
<path d="M348.829 391.317C348.752 391.317 348.682 391.294 348.624 391.25L325.742 374.583C325.671 374.533 325.627 374.45 325.627 374.372V321C325.627 320.872 325.729 320.761 325.877 320.728L348.759 316.094C348.855 316.078 348.958 316.094 349.028 316.15C349.105 316.2 349.15 316.283 349.15 316.367V391.039C349.15 391.144 349.079 391.244 348.964 391.289C348.919 391.305 348.874 391.317 348.829 391.317ZM326.268 374.244L348.508 390.444V316.717L326.268 321.222V374.244Z" fill="black"/>
<path d="M220.74 267.795V303.822L197.858 287.156V251.128L220.74 267.795Z" fill="#C41C28"/>
<path d="M220.74 304.1C220.663 304.1 220.592 304.078 220.534 304.033L197.653 287.367C197.582 287.317 197.537 287.233 197.537 287.156V251.128C197.537 251.022 197.608 250.922 197.723 250.878C197.839 250.833 197.967 250.85 198.063 250.917L220.945 267.583C221.016 267.633 221.061 267.717 221.061 267.795V303.822C221.061 303.928 220.99 304.028 220.875 304.072C220.83 304.089 220.785 304.1 220.74 304.1ZM198.179 287.028L220.419 303.228V267.928L198.179 251.728V287.028Z" fill="black"/>
<path d="M263.436 259.167L240.554 263.789L220.74 267.794L197.858 251.128L240.554 242.5L263.436 259.167Z" fill="#FF7E88"/>
<path d="M220.74 268.072C220.663 268.072 220.592 268.05 220.534 268.006L197.653 251.339C197.563 251.272 197.518 251.161 197.55 251.061C197.576 250.961 197.672 250.878 197.787 250.856L240.484 242.228C240.58 242.206 240.683 242.228 240.766 242.283L263.648 258.95C263.738 259.017 263.783 259.128 263.751 259.228C263.725 259.328 263.629 259.411 263.513 259.433L220.817 268.061C220.817 268.061 220.765 268.067 220.746 268.067L220.74 268.072ZM198.557 251.272L220.823 267.494L262.737 259.022L240.471 242.8L198.557 251.272Z" fill="black"/>
<path d="M263.436 223.133V259.167L240.554 242.5V206.467L263.436 223.133Z" fill="#C41C28"/>
<path d="M263.436 259.444C263.359 259.444 263.289 259.422 263.231 259.378L240.349 242.711C240.278 242.661 240.234 242.578 240.234 242.5V206.467C240.234 206.361 240.304 206.261 240.42 206.217C240.535 206.172 240.663 206.189 240.76 206.256L263.642 222.922C263.712 222.972 263.757 223.056 263.757 223.133V259.167C263.757 259.272 263.686 259.372 263.571 259.417C263.526 259.433 263.481 259.444 263.436 259.444ZM240.875 242.372L263.115 258.572V223.267L240.875 207.067V242.372Z" fill="black"/>
<path d="M306.133 178.472V214.506L283.251 197.839V161.806L306.133 178.472Z" fill="#C41C28"/>
<path d="M306.133 214.783C306.056 214.783 305.985 214.761 305.927 214.717L283.046 198.05C282.975 198 282.93 197.917 282.93 197.839V161.806C282.93 161.7 283.001 161.6 283.116 161.556C283.232 161.511 283.36 161.528 283.456 161.594L306.338 178.261C306.409 178.311 306.454 178.394 306.454 178.472V214.506C306.454 214.611 306.383 214.711 306.267 214.756C306.223 214.772 306.178 214.783 306.133 214.783ZM283.572 197.711L305.812 213.911V178.606L283.572 162.406V197.711Z" fill="black"/>
<path d="M435.775 260.589V298.766L393.143 307.394V381.961L348.829 391.039V316.367L325.947 321L178.576 350.833V312.3L220.74 303.822L263.436 295.239L325.947 282.672L348.829 278.072V128.966L370.254 124.655L393.143 120.05V269.161L412.893 265.189L435.775 260.589Z" fill="#FF444F"/>
<path d="M348.829 391.317C348.759 391.317 348.688 391.294 348.63 391.255C348.553 391.2 348.508 391.122 348.508 391.039V316.717L178.646 351.105C178.55 351.122 178.447 351.105 178.377 351.05C178.3 351 178.255 350.917 178.255 350.833V312.3C178.255 312.172 178.358 312.061 178.505 312.028L348.508 277.85V128.967C348.508 128.839 348.611 128.728 348.759 128.694L393.072 119.778C393.168 119.761 393.265 119.778 393.342 119.833C393.419 119.883 393.463 119.967 393.463 120.05V268.811L435.704 260.317C435.801 260.3 435.903 260.317 435.974 260.372C436.051 260.422 436.096 260.505 436.096 260.589V298.767C436.096 298.894 435.993 299.005 435.846 299.039L393.463 307.617V381.961C393.463 382.089 393.361 382.2 393.22 382.233L348.906 391.311C348.906 391.311 348.855 391.317 348.829 391.317ZM348.829 316.089C348.9 316.089 348.97 316.111 349.028 316.15C349.105 316.2 349.15 316.283 349.15 316.367V390.689L392.822 381.744V307.394C392.822 307.267 392.924 307.155 393.072 307.122L435.454 298.544V260.933L393.213 269.428C393.117 269.45 393.021 269.428 392.944 269.372C392.867 269.322 392.822 269.239 392.822 269.155V120.4L349.15 129.189V278.072C349.15 278.2 349.047 278.311 348.9 278.344L178.897 312.522V350.483L348.759 316.094C348.759 316.094 348.81 316.089 348.829 316.089Z" fill="black"/>
<path d="M263.436 259.167V295.239L220.74 303.822V267.794L240.554 263.789L263.436 259.167Z" fill="#FF444F"/>
<path d="M220.74 304.1C220.669 304.1 220.599 304.078 220.541 304.039C220.464 303.989 220.419 303.905 220.419 303.822V267.794C220.419 267.667 220.522 267.555 220.669 267.522L263.366 258.894C263.462 258.878 263.558 258.894 263.635 258.95C263.712 259 263.757 259.083 263.757 259.167V295.239C263.757 295.367 263.654 295.478 263.507 295.511L220.81 304.094C220.81 304.094 220.759 304.1 220.74 304.1ZM221.061 268.017V303.472L263.115 295.017V259.517L221.061 268.017Z" fill="black"/>
<path d="M306.133 214.506L283.251 219.128L263.436 223.133L240.554 206.467L283.251 197.839L306.133 214.506Z" fill="#FF7E88"/>
<path d="M263.436 223.411C263.359 223.411 263.289 223.389 263.231 223.344L240.349 206.678C240.259 206.611 240.214 206.5 240.246 206.4C240.272 206.3 240.368 206.217 240.484 206.194L283.18 197.567C283.277 197.55 283.379 197.567 283.463 197.622L306.344 214.289C306.434 214.356 306.479 214.467 306.447 214.567C306.421 214.667 306.325 214.75 306.21 214.772L263.513 223.4C263.513 223.4 263.462 223.406 263.443 223.406L263.436 223.411ZM241.254 206.611L263.52 222.833L305.433 214.361L283.167 198.139L241.254 206.611Z" fill="black"/>
<path d="M306.133 214.506V250.578L263.436 259.167V223.133L283.251 219.128L306.133 214.506Z" fill="#FF444F"/>
<path d="M263.436 259.444C263.366 259.444 263.295 259.422 263.237 259.383C263.16 259.333 263.115 259.25 263.115 259.167V223.133C263.115 223.006 263.218 222.894 263.366 222.861L306.062 214.233C306.158 214.211 306.255 214.233 306.332 214.289C306.409 214.339 306.454 214.422 306.454 214.506V250.578C306.454 250.706 306.351 250.817 306.203 250.85L263.507 259.439C263.507 259.439 263.455 259.444 263.436 259.444ZM263.757 223.356V258.817L305.812 250.356V214.856L263.757 223.356Z" fill="black"/>
<path d="M348.829 169.85V205.917L325.947 210.522L306.133 214.505V178.472L325.947 174.472L348.829 169.85Z" fill="#FF444F"/>
<path d="M306.133 214.783C306.062 214.783 305.992 214.761 305.934 214.722C305.857 214.672 305.812 214.589 305.812 214.505V178.472C305.812 178.344 305.915 178.233 306.062 178.2L348.759 169.578C348.855 169.561 348.951 169.578 349.028 169.633C349.105 169.683 349.15 169.767 349.15 169.85V205.917C349.15 206.044 349.047 206.156 348.9 206.189L306.203 214.778C306.203 214.778 306.152 214.783 306.133 214.783ZM306.454 178.694V214.156L348.508 205.694V170.2L306.454 178.694Z" fill="black"/>
<path d="M348.829 169.85L325.947 174.472L306.133 178.472L283.251 161.806L325.947 153.183L348.829 169.85Z" fill="#FF7E88"/>
<path d="M306.133 178.75C306.056 178.75 305.985 178.728 305.927 178.683L283.046 162.017C282.956 161.95 282.911 161.839 282.943 161.739C282.969 161.639 283.065 161.556 283.18 161.533L325.877 152.911C325.973 152.889 326.076 152.911 326.159 152.967L349.041 169.633C349.131 169.7 349.176 169.811 349.144 169.911C349.118 170.011 349.022 170.094 348.906 170.117L306.21 178.739C306.21 178.739 306.158 178.744 306.139 178.744L306.133 178.75ZM283.95 161.95L306.216 178.172L348.13 169.706L325.864 153.483L283.95 161.95Z" fill="black"/>
<path d="M520.353 281.805V317.839L497.471 301.172V286.411L520.353 281.805Z" fill="#C41C28"/>
<path d="M520.353 318.117C520.276 318.117 520.206 318.094 520.148 318.05L497.266 301.383C497.195 301.333 497.15 301.25 497.15 301.172V286.411C497.15 286.283 497.253 286.172 497.401 286.139L520.283 281.533C520.379 281.517 520.475 281.533 520.552 281.589C520.629 281.639 520.674 281.722 520.674 281.805V317.839C520.674 317.944 520.603 318.044 520.488 318.089C520.443 318.105 520.398 318.117 520.353 318.117ZM497.792 301.044L520.032 317.244V282.155L497.792 286.633V301.044Z" fill="black"/>
<path d="M563.05 273.178L540.168 277.8L520.353 281.806V260.517L540.168 256.511L563.05 273.178Z" fill="#FF7E88"/>
<path d="M520.353 282.083C520.283 282.083 520.212 282.061 520.154 282.022C520.077 281.972 520.032 281.889 520.032 281.806V260.517C520.032 260.389 520.135 260.278 520.283 260.245L540.097 256.239C540.193 256.217 540.296 256.239 540.38 256.295L563.261 272.961C563.351 273.028 563.396 273.139 563.364 273.239C563.338 273.339 563.242 273.422 563.127 273.445L520.43 282.072C520.43 282.072 520.379 282.078 520.36 282.078L520.353 282.083ZM520.674 260.739V281.456L562.35 273.033L540.084 256.811L520.674 260.733V260.739Z" fill="black"/>
<path d="M563.05 125.189L540.168 129.811L520.353 133.817L497.471 117.15L540.168 108.522L563.05 125.189Z" fill="#FF7E88"/>
<path d="M520.353 134.094C520.276 134.094 520.206 134.072 520.148 134.028L497.266 117.361C497.176 117.294 497.131 117.183 497.163 117.083C497.189 116.983 497.285 116.9 497.401 116.878L540.097 108.25C540.193 108.228 540.296 108.25 540.38 108.306L563.261 124.972C563.351 125.039 563.396 125.15 563.364 125.25C563.338 125.35 563.242 125.433 563.127 125.456L520.43 134.083C520.43 134.083 520.379 134.089 520.36 134.089L520.353 134.094ZM498.171 117.294L520.437 133.517L562.35 125.044L540.084 108.822L498.171 117.294Z" fill="black"/>
<path d="M648.59 107.961V143.995L625.702 127.328V112.572L648.59 107.961Z" fill="#C41C28"/>
<path d="M648.59 144.272C648.513 144.272 648.443 144.25 648.385 144.206L625.497 127.539C625.426 127.489 625.381 127.406 625.381 127.328V112.572C625.381 112.444 625.484 112.333 625.631 112.3L648.52 107.689C648.609 107.667 648.712 107.689 648.789 107.744C648.866 107.794 648.911 107.878 648.911 107.961V143.994C648.911 144.1 648.84 144.2 648.725 144.245C648.68 144.261 648.635 144.272 648.59 144.272ZM626.023 127.2L648.269 143.4V108.311L626.023 112.794V127.2Z" fill="black"/>
<path d="M691.287 99.3334L668.398 103.961L648.59 107.961V86.6667L668.398 82.6667L691.287 99.3334Z" fill="#FF7E88"/>
<path d="M648.59 108.239C648.52 108.239 648.449 108.217 648.391 108.178C648.314 108.128 648.269 108.045 648.269 107.961V86.6667C648.269 86.5389 648.372 86.4278 648.52 86.3945L668.328 82.3945C668.424 82.3723 668.527 82.3945 668.61 82.4501L691.498 99.1167C691.588 99.1834 691.633 99.2945 691.601 99.3945C691.575 99.4945 691.479 99.5778 691.364 99.6001L648.667 108.228C648.667 108.228 648.616 108.233 648.597 108.233L648.59 108.239ZM648.911 86.8889V107.611L690.587 99.1889L668.315 82.9667L648.911 86.8834V86.8889Z" fill="black"/>
<path d="M648.59 255.95V291.983L625.702 275.317V239.283L648.59 255.95Z" fill="#C41C28"/>
<path d="M648.59 292.261C648.513 292.261 648.443 292.239 648.385 292.195L625.497 275.528C625.426 275.478 625.381 275.395 625.381 275.317V239.283C625.381 239.178 625.452 239.078 625.567 239.033C625.676 238.989 625.811 239 625.907 239.072L648.796 255.739C648.866 255.789 648.911 255.872 648.911 255.95V291.983C648.911 292.089 648.84 292.189 648.725 292.233C648.68 292.25 648.635 292.261 648.59 292.261ZM626.023 275.189L648.269 291.389V256.083L626.023 239.883V275.189Z" fill="black"/>
<path d="M563.05 309.25V345.283L540.168 328.617V313.856L563.05 309.25Z" fill="#C41C28"/>
<path d="M563.05 345.561C562.973 345.561 562.902 345.539 562.844 345.495L539.962 328.828C539.892 328.778 539.847 328.695 539.847 328.617V313.856C539.847 313.728 539.95 313.617 540.097 313.583L562.979 308.978C563.075 308.961 563.172 308.978 563.249 309.033C563.326 309.083 563.37 309.167 563.37 309.25V345.283C563.37 345.389 563.3 345.489 563.184 345.533C563.139 345.55 563.095 345.561 563.05 345.561ZM540.489 328.489L562.729 344.689V309.6L540.489 314.078V328.489Z" fill="black"/>
<path d="M648.59 71.8888L625.702 76.5111L563.05 89.1555L540.168 72.4888L625.702 55.2222L648.59 71.8888Z" fill="#FF7E88"/>
<path d="M563.05 89.4333C562.973 89.4333 562.902 89.4111 562.844 89.3667L539.962 72.7C539.873 72.6333 539.828 72.5222 539.86 72.4222C539.885 72.3222 539.982 72.2389 540.097 72.2167L625.631 54.95C625.728 54.9333 625.83 54.95 625.914 55.0056L648.802 71.6722C648.892 71.7389 648.937 71.85 648.905 71.95C648.879 72.05 648.783 72.1333 648.667 72.1556L563.127 89.4222C563.127 89.4222 563.075 89.4278 563.056 89.4278L563.05 89.4333ZM540.867 72.6333L563.133 88.8556L647.891 71.7445L625.619 55.5222L540.867 72.6333Z" fill="black"/>
<path d="M477.657 178.472V290.395L454.775 273.728V161.806L477.657 178.472Z" fill="#C41C28"/>
<path d="M477.657 290.672C477.58 290.672 477.509 290.65 477.451 290.606L454.569 273.939C454.499 273.883 454.454 273.806 454.454 273.728V161.806C454.454 161.7 454.525 161.6 454.64 161.556C454.749 161.511 454.884 161.528 454.98 161.594L477.862 178.261C477.933 178.311 477.978 178.394 477.978 178.472V290.394C477.978 290.5 477.907 290.6 477.791 290.644C477.746 290.661 477.702 290.672 477.657 290.672ZM455.096 273.6L477.336 289.8V178.606L455.096 162.406V273.6Z" fill="black"/>
<path d="M520.353 169.85L497.471 174.472L477.657 178.472L454.775 161.806L497.471 153.183L520.353 169.85Z" fill="#FF7E88"/>
<path d="M477.657 178.75C477.58 178.75 477.509 178.728 477.451 178.683L454.569 162.017C454.48 161.95 454.435 161.839 454.467 161.739C454.492 161.639 454.589 161.556 454.704 161.533L497.401 152.911C497.497 152.889 497.6 152.911 497.683 152.967L520.565 169.633C520.655 169.7 520.7 169.811 520.668 169.911C520.642 170.011 520.546 170.094 520.43 170.117L477.734 178.739C477.734 178.739 477.682 178.744 477.663 178.744L477.657 178.75ZM455.474 161.95L477.74 178.172L519.654 169.706L497.388 153.483L455.474 161.95Z" fill="black"/>
<path d="M691.287 135.406V247.322L668.398 230.656V140.011L691.287 135.406Z" fill="#C41C28"/>
<path d="M691.287 247.6C691.21 247.6 691.139 247.578 691.081 247.533L668.193 230.867C668.123 230.817 668.078 230.733 668.078 230.656V140.011C668.078 139.883 668.18 139.772 668.328 139.739L691.216 135.133C691.312 135.117 691.415 135.133 691.486 135.189C691.563 135.239 691.607 135.322 691.607 135.406V247.322C691.607 247.428 691.537 247.528 691.421 247.572C691.377 247.589 691.332 247.6 691.287 247.6ZM668.719 230.528L690.966 246.728V135.756L668.719 140.233V230.528Z" fill="black"/>
<path d="M733.983 126.778L711.095 131.406L691.287 135.406V114.111L711.095 110.111L733.983 126.778Z" fill="#FF7E88"/>
<path d="M691.287 135.683C691.216 135.683 691.146 135.661 691.088 135.622C691.011 135.572 690.966 135.489 690.966 135.406V114.111C690.966 113.983 691.068 113.872 691.216 113.839L711.024 109.839C711.121 109.817 711.223 109.839 711.307 109.894L734.195 126.561C734.285 126.628 734.33 126.739 734.298 126.839C734.272 126.939 734.176 127.022 734.06 127.044L691.364 135.672C691.364 135.672 691.312 135.678 691.293 135.678L691.287 135.683ZM691.607 114.333V135.056L733.284 126.633L711.011 110.411L691.607 114.328V114.333Z" fill="black"/>
<path d="M563.05 273.178V309.25L540.168 313.856L520.353 317.839V281.806L540.168 277.8L563.05 273.178Z" fill="#FF444F"/>
<path d="M520.353 318.117C520.283 318.117 520.212 318.094 520.154 318.055C520.077 318.005 520.032 317.922 520.032 317.839V281.805C520.032 281.678 520.135 281.567 520.283 281.533L562.979 272.905C563.075 272.883 563.172 272.905 563.249 272.961C563.326 273.011 563.37 273.094 563.37 273.178V309.25C563.37 309.378 563.268 309.489 563.12 309.522L520.424 318.111C520.424 318.111 520.372 318.117 520.353 318.117ZM520.674 282.028V317.489L562.729 309.028V273.528L520.674 282.028Z" fill="black"/>
<path d="M563.05 125.189V161.261L520.353 169.85V133.817L540.168 129.811L563.05 125.189Z" fill="#FF444F"/>
<path d="M520.353 170.128C520.283 170.128 520.212 170.106 520.154 170.067C520.077 170.017 520.032 169.933 520.032 169.85V133.817C520.032 133.689 520.135 133.578 520.283 133.545L562.979 124.917C563.075 124.9 563.172 124.917 563.249 124.972C563.326 125.022 563.37 125.106 563.37 125.189V161.261C563.37 161.389 563.268 161.5 563.12 161.533L520.424 170.122C520.424 170.122 520.372 170.128 520.353 170.128ZM520.674 134.039V169.5L562.729 161.039V125.539L520.674 134.039Z" fill="black"/>
<path d="M691.287 99.3333V135.405L668.398 140.011L648.59 143.994V107.961L668.398 103.961L691.287 99.3333Z" fill="#FF444F"/>
<path d="M648.59 144.272C648.52 144.272 648.449 144.25 648.391 144.211C648.314 144.161 648.269 144.078 648.269 143.994V107.961C648.269 107.833 648.372 107.722 648.52 107.689L691.216 99.0611C691.312 99.0444 691.409 99.0611 691.486 99.1167C691.563 99.1667 691.607 99.25 691.607 99.3333V135.406C691.607 135.533 691.505 135.644 691.357 135.678L648.661 144.267C648.661 144.267 648.609 144.272 648.59 144.272ZM648.911 108.183V143.644L690.966 135.183V99.6833L648.911 108.183Z" fill="black"/>
<path d="M691.287 247.322V283.394L648.59 291.983V255.95L668.398 251.95L691.287 247.322Z" fill="#FF444F"/>
<path d="M648.59 292.261C648.52 292.261 648.449 292.239 648.391 292.2C648.314 292.15 648.269 292.067 648.269 291.983V255.95C648.269 255.822 648.372 255.711 648.52 255.678L691.216 247.05C691.312 247.033 691.409 247.05 691.486 247.106C691.563 247.156 691.607 247.239 691.607 247.322V283.395C691.607 283.522 691.505 283.633 691.357 283.667L648.661 292.256C648.661 292.256 648.609 292.261 648.59 292.261ZM648.911 256.172V291.633L690.966 283.172V247.672L648.911 256.172Z" fill="black"/>
<path d="M648.59 291.983L625.702 296.606L563.05 309.25V287.967L625.702 275.317L648.59 291.983Z" fill="#FF7E88"/>
<path d="M563.05 309.528C562.979 309.528 562.908 309.505 562.851 309.467C562.774 309.417 562.729 309.333 562.729 309.25V287.967C562.729 287.839 562.831 287.728 562.979 287.694L625.631 275.044C625.728 275.022 625.83 275.044 625.914 275.1L648.802 291.767C648.892 291.833 648.937 291.944 648.905 292.044C648.879 292.144 648.783 292.228 648.667 292.25L563.127 309.517C563.127 309.517 563.075 309.522 563.056 309.522L563.05 309.528ZM563.37 288.189V308.9L647.891 291.839L625.619 275.617L563.37 288.183V288.189Z" fill="black"/>
<path d="M648.59 291.983V328.05L563.05 345.283V309.25L625.702 296.606L648.59 291.983Z" fill="#FF444F"/>
<path d="M563.05 345.561C562.979 345.561 562.908 345.539 562.851 345.5C562.774 345.45 562.729 345.367 562.729 345.283V309.25C562.729 309.122 562.831 309.011 562.979 308.978L648.52 291.711C648.609 291.695 648.712 291.711 648.789 291.767C648.866 291.817 648.911 291.9 648.911 291.983V328.05C648.911 328.178 648.808 328.289 648.661 328.322L563.12 345.556C563.12 345.556 563.069 345.561 563.05 345.561ZM563.37 309.472V344.933L648.269 327.828V292.333L563.37 309.472Z" fill="black"/>
<path d="M648.59 71.8889V107.961L625.702 112.572L563.05 125.189V89.1556L625.702 76.5111L648.59 71.8889Z" fill="#FF444F"/>
<path d="M563.05 125.467C562.979 125.467 562.908 125.445 562.851 125.406C562.774 125.356 562.729 125.272 562.729 125.189V89.1556C562.729 89.0279 562.831 88.9168 562.979 88.8834L648.52 71.6168C648.609 71.6001 648.712 71.6168 648.789 71.6723C648.866 71.7223 648.911 71.8056 648.911 71.889V107.961C648.911 108.089 648.808 108.2 648.661 108.233L563.12 125.461C563.12 125.461 563.069 125.467 563.05 125.467ZM563.37 89.3779V124.839L648.269 107.739V72.239L563.37 89.3779Z" fill="black"/>
<path d="M520.353 169.85V281.805L497.471 286.411L477.657 290.394V178.472L497.471 174.472L520.353 169.85Z" fill="#FF444F"/>
<path d="M477.657 290.672C477.586 290.672 477.515 290.65 477.458 290.611C477.381 290.561 477.336 290.478 477.336 290.394V178.472C477.336 178.344 477.438 178.233 477.586 178.2L520.283 169.578C520.379 169.561 520.475 169.578 520.552 169.633C520.629 169.683 520.674 169.767 520.674 169.85V281.805C520.674 281.933 520.571 282.044 520.424 282.078L477.727 290.667C477.727 290.667 477.676 290.672 477.657 290.672ZM477.977 178.694V290.044L520.032 281.583V170.2L477.977 178.694Z" fill="black"/>
<path d="M733.983 126.778V238.733L691.287 247.322V135.406L711.095 131.406L733.983 126.778Z" fill="#FF444F"/>
<path d="M691.287 247.6C691.216 247.6 691.146 247.578 691.088 247.539C691.011 247.489 690.966 247.406 690.966 247.322V135.406C690.966 135.278 691.068 135.167 691.216 135.133L733.913 126.506C734.002 126.489 734.105 126.506 734.182 126.561C734.259 126.611 734.304 126.695 734.304 126.778V238.733C734.304 238.861 734.201 238.972 734.054 239.006L691.357 247.595C691.357 247.595 691.306 247.6 691.287 247.6ZM691.607 135.628V246.972L733.662 238.511V127.128L691.607 135.628Z" fill="black"/>
<path d="M691.287 247.322L668.398 251.95L648.59 255.95L625.702 239.283L668.398 230.656L691.287 247.322Z" fill="#FF7E88"/>
<path d="M648.59 256.228C648.513 256.228 648.443 256.205 648.385 256.161L625.497 239.494C625.407 239.428 625.362 239.317 625.394 239.217C625.42 239.117 625.516 239.033 625.631 239.011L668.328 230.383C668.424 230.361 668.527 230.383 668.61 230.439L691.498 247.105C691.588 247.172 691.633 247.283 691.601 247.383C691.575 247.483 691.479 247.567 691.364 247.589L648.667 256.217C648.667 256.217 648.616 256.222 648.597 256.222L648.59 256.228ZM626.401 239.428L648.674 255.65L690.587 247.178L668.315 230.955L626.401 239.428Z" fill="black"/>
<path d="M520.353 133.817V169.85L497.471 153.183V117.15L520.353 133.817Z" fill="#C41C28"/>
<path d="M520.353 170.128C520.276 170.128 520.206 170.106 520.148 170.061L497.266 153.395C497.195 153.345 497.15 153.261 497.15 153.183V117.15C497.15 117.045 497.221 116.945 497.337 116.9C497.452 116.856 497.58 116.867 497.677 116.939L520.558 133.606C520.629 133.656 520.674 133.739 520.674 133.817V169.85C520.674 169.956 520.603 170.056 520.488 170.1C520.443 170.117 520.398 170.128 520.353 170.128ZM497.792 153.056L520.032 169.256V133.95L497.792 117.75V153.056Z" fill="black"/>
<path d="M563.05 89.1557V125.189L540.168 108.522V72.489L563.05 89.1557Z" fill="#C41C28"/>
<path d="M563.05 125.467C562.973 125.467 562.902 125.444 562.844 125.4L539.962 108.733C539.892 108.683 539.847 108.6 539.847 108.522V72.4889C539.847 72.3834 539.917 72.2834 540.033 72.2389C540.148 72.1945 540.277 72.2111 540.373 72.2778L563.255 88.9445C563.326 88.9945 563.37 89.0778 563.37 89.1556V125.189C563.37 125.294 563.3 125.394 563.184 125.439C563.139 125.456 563.095 125.467 563.05 125.467ZM540.489 108.394L562.729 124.594V89.2889L540.489 73.0889V108.394Z" fill="black"/>
<path d="M861.822 209.095L842.765 212.917L842.759 212.911L861.822 209.089V206.722L883.1 202.456H883.113L885.615 204.311L885.603 204.317L883.382 204.761" fill="white"/>
<path d="M842.765 213.195C842.682 213.195 842.598 213.167 842.54 213.111C842.457 213.039 842.425 212.933 842.457 212.833C842.489 212.733 842.579 212.661 842.688 212.639L861.502 208.867V206.722C861.502 206.595 861.604 206.483 861.752 206.45L883.03 202.183C883.126 202.161 883.248 202.183 883.325 202.245L885.827 204.1C885.911 204.161 885.949 204.256 885.936 204.35C885.923 204.445 885.853 204.522 885.757 204.567C885.737 204.578 885.699 204.589 885.68 204.595L883.459 205.039C883.293 205.072 883.113 204.978 883.074 204.828C883.036 204.678 883.145 204.528 883.318 204.495L884.935 204.172L883.03 202.756L862.156 206.945V209.089C862.156 209.217 862.06 209.333 861.906 209.367L842.848 213.189C842.848 213.189 842.797 213.195 842.778 213.195H842.765Z" fill="black"/>
<path d="M842.765 212.917L840.526 213.367L808.487 219.789L840.519 213.361L842.759 212.911L842.765 212.917Z" fill="white"/>
<path d="M808.487 220.067C808.339 220.067 808.211 219.978 808.173 219.85C808.134 219.7 808.243 219.55 808.41 219.517L842.682 212.639C842.791 212.617 842.9 212.644 842.983 212.711C843.066 212.783 843.099 212.889 843.066 212.989C843.034 213.089 842.945 213.161 842.836 213.183L808.558 220.056C808.558 220.056 808.506 220.061 808.487 220.061V220.067Z" fill="black"/>
<path d="M861.822 188.75V209.089L842.759 212.911L840.519 213.361L838.004 211.494L818.953 197.344L821.301 196.872L861.822 188.75Z" fill="#FF444F"/>
<path d="M840.519 213.639C840.442 213.639 840.372 213.617 840.307 213.572L818.741 197.556C818.651 197.489 818.606 197.378 818.638 197.278C818.664 197.178 818.76 197.095 818.876 197.072L861.745 188.478C861.842 188.461 861.938 188.478 862.015 188.533C862.092 188.583 862.137 188.667 862.137 188.75V209.089C862.137 209.217 862.034 209.328 861.887 209.361L840.583 213.633C840.583 213.633 840.532 213.639 840.513 213.639H840.519ZM819.646 197.489L840.609 213.056L861.508 208.867V189.1L819.646 197.489Z" fill="black"/>
<path d="M948.313 212.544V250.867L778.117 285.106V246.783L779.298 246.544L822.026 237.95L840.526 234.228L864.864 229.333L907.695 220.717L948.313 212.544Z" fill="#FF444F"/>
<path d="M778.117 285.383C778.046 285.383 777.976 285.361 777.918 285.322C777.841 285.272 777.796 285.189 777.796 285.106V246.783C777.796 246.656 777.899 246.545 778.046 246.511L779.227 246.272L948.242 212.272C948.338 212.256 948.441 212.272 948.512 212.328C948.589 212.378 948.634 212.461 948.634 212.544V250.867C948.634 250.995 948.531 251.106 948.383 251.139L778.188 285.378C778.188 285.378 778.136 285.383 778.117 285.383ZM778.438 247.006V284.756L947.992 250.645V212.894L778.438 247.006Z" fill="black"/>
<path d="M1037.72 237.044V275.367L993.294 284.261V245.939L997.028 245.189L1037.72 237.044Z" fill="#FF444F"/>
<path d="M993.293 284.539C993.223 284.539 993.152 284.517 993.095 284.478C993.018 284.428 992.973 284.344 992.973 284.261V245.939C992.973 245.811 993.075 245.7 993.223 245.667L996.957 244.917L1037.65 236.772C1037.75 236.75 1037.84 236.772 1037.92 236.828C1038 236.878 1038.04 236.961 1038.04 237.044V275.367C1038.04 275.494 1037.94 275.606 1037.79 275.639L993.364 284.533C993.364 284.533 993.313 284.539 993.293 284.539ZM993.614 246.161V283.911L1037.4 275.144V237.394L993.614 246.161Z" fill="black"/>
<path d="M883.1 204.817L861.822 209.095V188.75L859.307 186.884L840.25 172.734L842.463 172.289L883.107 164.139" fill="#FF444F"/>
<path d="M861.822 209.372C861.752 209.372 861.681 209.35 861.624 209.311C861.547 209.261 861.502 209.178 861.502 209.095V188.878L840.038 172.945C839.948 172.878 839.903 172.767 839.935 172.667C839.961 172.567 840.057 172.483 840.173 172.461L883.03 163.867C883.203 163.833 883.376 163.928 883.414 164.072C883.453 164.222 883.344 164.372 883.177 164.406L840.936 172.878L862.028 188.539C862.098 188.595 862.137 188.667 862.137 188.75V208.745L883.023 204.545C883.196 204.511 883.37 204.606 883.408 204.75C883.447 204.9 883.337 205.05 883.171 205.083L861.893 209.361C861.893 209.361 861.842 209.367 861.822 209.367V209.372Z" fill="black"/>
<path d="M926.239 196.161L885.615 204.311L883.113 204.817L883.107 164.139L904.679 180.156L926.239 196.161Z" fill="#C41C28"/>
<path d="M883.113 205.095C883.042 205.095 882.972 205.072 882.914 205.034C882.837 204.984 882.792 204.9 882.792 204.817V164.139C882.792 164.028 882.856 163.934 882.972 163.889C883.081 163.845 883.222 163.861 883.312 163.928L926.445 195.95C926.535 196.017 926.579 196.128 926.547 196.228C926.515 196.328 926.425 196.411 926.31 196.434L883.184 205.089C883.184 205.089 883.132 205.095 883.113 205.095ZM883.427 164.745V204.467L885.545 204.045L925.553 196.017L883.434 164.745H883.427Z" fill="black"/>
<path d="M993.294 245.939V284.261L948.313 250.867V212.545L993.294 245.939Z" fill="#C41C28"/>
<path d="M993.293 284.539C993.216 284.539 993.146 284.517 993.082 284.472L948.101 251.078C948.03 251.022 947.992 250.95 947.992 250.867V212.545C947.992 212.433 948.062 212.339 948.178 212.295C948.293 212.25 948.428 212.267 948.518 212.333L993.499 245.728C993.569 245.783 993.608 245.856 993.608 245.939V284.261C993.608 284.372 993.537 284.467 993.422 284.511C993.377 284.528 993.332 284.539 993.287 284.539H993.293ZM948.634 250.739L992.973 283.656V246.067L948.634 213.15V250.739Z" fill="black"/>
<path d="M861.822 209.094L842.765 212.917L840.526 213.367L808.487 219.789L840.519 213.361L842.759 212.911L861.822 209.089L883.382 204.761" fill="#FF7E88"/>
<path d="M808.487 220.067C808.339 220.067 808.211 219.978 808.173 219.85C808.134 219.7 808.243 219.55 808.41 219.517L883.305 204.489C883.479 204.456 883.652 204.55 883.69 204.694C883.729 204.844 883.62 204.994 883.453 205.028L861.951 209.344C861.951 209.344 861.912 209.356 861.893 209.361L808.558 220.056C808.558 220.056 808.506 220.061 808.487 220.061V220.067Z" fill="black"/>
<path d="M840.526 213.367L808.487 219.789L840.519 213.361L840.526 213.367Z" fill="#FF7E88"/>
<path d="M808.487 220.067C808.339 220.067 808.211 219.978 808.173 219.85C808.134 219.7 808.243 219.55 808.41 219.517H808.423L840.442 213.089C840.551 213.067 840.667 213.095 840.744 213.161C840.827 213.234 840.859 213.339 840.827 213.439C840.795 213.539 840.705 213.611 840.596 213.634L808.558 220.056C808.558 220.056 808.506 220.061 808.487 220.061V220.067Z" fill="black"/>
<path d="M876.908 159.539L872.025 155.917L861.527 148.122L861.54 148.117L876.908 159.539Z" fill="#FF7E88"/>
<path d="M876.908 159.817C876.831 159.817 876.76 159.794 876.696 159.75L861.316 148.333C861.232 148.272 861.194 148.183 861.206 148.089C861.219 147.994 861.283 147.917 861.38 147.872C861.495 147.822 861.649 147.833 861.745 147.906L877.113 159.328C877.248 159.428 877.261 159.606 877.145 159.717C877.081 159.783 876.991 159.811 876.902 159.811L876.908 159.817Z" fill="black"/>
<path d="M883.382 204.761L885.603 204.317L885.615 204.311L926.239 196.161L904.679 180.156L883.107 164.139L876.914 159.539H876.908L861.54 148.117L861.527 148.122L836.13 129.267L880.559 120.495L970.585 187.256L1012.37 178.872L1034.41 195.228L992.658 203.628L1011.25 217.411L1033.31 233.772L1037.72 237.045L997.028 245.189L993.293 245.939L948.313 212.545L907.695 220.717L864.864 229.334L840.526 234.228L822.026 237.95L779.298 246.545L778.117 246.784L756.089 230.306L776.083 226.295L797.656 221.961L800.004 221.489L808.487 219.789L840.526 213.367L842.765 212.917L861.822 209.095L883.382 204.761Z" fill="#FF7E88"/>
<path d="M778.117 247.061C778.04 247.061 777.963 247.039 777.905 246.995L755.877 230.517C755.787 230.45 755.748 230.339 755.774 230.239C755.8 230.139 755.896 230.061 756.012 230.033L883.305 204.489L885.5 204.05C885.5 204.05 885.526 204.045 885.538 204.039L925.546 196.011L876.735 159.772C876.735 159.772 876.709 159.756 876.696 159.75L861.386 148.372C861.386 148.372 861.335 148.35 861.316 148.333L835.918 129.478C835.829 129.411 835.784 129.3 835.816 129.2C835.848 129.1 835.938 129.017 836.053 128.995L880.482 120.222C880.578 120.2 880.687 120.222 880.764 120.283L970.668 186.956L1012.29 178.606C1012.39 178.583 1012.5 178.606 1012.58 178.667L1034.61 195.022C1034.7 195.089 1034.75 195.2 1034.71 195.3C1034.69 195.4 1034.59 195.483 1034.48 195.506L993.345 203.783L1037.93 236.845C1038.02 236.911 1038.06 237.022 1038.03 237.122C1038 237.222 1037.91 237.306 1037.79 237.328L993.364 246.222C993.261 246.245 993.159 246.222 993.082 246.161L948.223 212.856L778.188 247.061C778.188 247.061 778.136 247.067 778.117 247.067V247.061ZM756.775 230.45L778.2 246.478L779.221 246.272L948.236 212.272C948.332 212.25 948.441 212.272 948.518 212.333L993.377 245.639L996.951 244.922L1037.03 236.9L992.447 203.839C992.357 203.772 992.312 203.661 992.344 203.561C992.37 203.461 992.466 203.378 992.581 203.356L1033.71 195.078L1012.28 179.172L970.656 187.522C970.553 187.545 970.45 187.522 970.373 187.461L880.469 120.789L836.817 129.406L861.668 147.856C861.668 147.856 861.72 147.878 861.739 147.895L877.075 159.289C877.075 159.289 877.101 159.306 877.113 159.311L926.438 195.933C926.528 196 926.573 196.111 926.541 196.211C926.515 196.311 926.419 196.395 926.304 196.417L885.705 204.561C885.705 204.561 885.68 204.567 885.667 204.572L756.769 230.439L756.775 230.45Z" fill="black"/>
<path d="M876.908 159.539L872.025 155.917L861.54 148.117L876.908 159.539Z" fill="#FF7E88"/>
<path d="M876.908 159.817C876.831 159.817 876.76 159.795 876.696 159.75L861.328 148.328C861.194 148.228 861.181 148.05 861.296 147.933C861.412 147.817 861.617 147.806 861.745 147.906L877.107 159.328C877.242 159.428 877.255 159.606 877.139 159.717C877.075 159.783 876.985 159.811 876.895 159.811L876.908 159.817Z" fill="black"/>
<path d="M876.908 159.539L872.025 155.917L861.527 148.122L861.54 148.117L876.908 159.539Z" fill="#FF7E88"/>
<path d="M876.908 159.817C876.831 159.817 876.76 159.794 876.696 159.75L861.316 148.333C861.232 148.272 861.194 148.183 861.206 148.089C861.219 147.994 861.283 147.917 861.38 147.872C861.495 147.822 861.649 147.833 861.745 147.906L877.113 159.328C877.248 159.428 877.261 159.606 877.145 159.717C877.081 159.783 876.991 159.811 876.902 159.811L876.908 159.817Z" fill="black"/>
<path d="M778.117 246.783V285.106L756.089 268.622V230.306L778.117 246.783Z" fill="#C41C28"/>
<path d="M778.117 285.383C778.04 285.383 777.969 285.361 777.905 285.317L755.877 268.833C755.806 268.783 755.768 268.706 755.768 268.622V230.306C755.768 230.195 755.838 230.1 755.954 230.05C756.069 230.006 756.204 230.022 756.3 230.095L778.329 246.572C778.399 246.622 778.438 246.7 778.438 246.783V285.106C778.438 285.217 778.367 285.311 778.252 285.361C778.207 285.378 778.162 285.383 778.117 285.383ZM756.409 268.495L777.796 284.5V246.911L756.409 230.911V268.495Z" fill="black"/>
<path d="M1034.41 195.228V233.55L1033.31 233.772L1011.25 217.411L992.658 203.628L1034.41 195.228Z" fill="#FF444F"/>
<path d="M1033.31 234.05C1033.23 234.05 1033.16 234.028 1033.1 233.983L992.447 203.839C992.357 203.772 992.312 203.661 992.344 203.561C992.369 203.461 992.466 203.378 992.581 203.356L1034.33 194.956C1034.42 194.939 1034.53 194.956 1034.6 195.011C1034.67 195.061 1034.72 195.145 1034.72 195.228V233.55C1034.72 233.678 1034.62 233.789 1034.47 233.822L1033.37 234.045C1033.37 234.045 1033.32 234.05 1033.3 234.05H1033.31ZM993.351 203.772L1033.4 233.467L1034.09 233.328V195.578L993.358 203.772H993.351Z" fill="black"/>
<path d="M797.656 221.961L776.083 226.294V205.822L797.656 221.961Z" fill="#C41C28"/>
<path d="M776.083 226.572C776.012 226.572 775.942 226.55 775.884 226.511C775.807 226.461 775.762 226.378 775.762 226.295V205.822C775.762 205.711 775.833 205.617 775.948 205.567C776.064 205.522 776.198 205.539 776.295 205.611L797.868 221.75C797.957 221.817 797.996 221.928 797.97 222.028C797.944 222.128 797.848 222.206 797.733 222.233L776.16 226.567C776.16 226.567 776.109 226.572 776.089 226.572H776.083ZM776.404 206.428V225.945L796.969 221.811L776.404 206.428Z" fill="black"/>
<path d="M840.519 213.361L808.487 219.789L800.004 221.489L797.656 221.961L776.083 205.823L797.38 201.611L818.953 197.345L838.004 211.495L840.519 213.361Z" fill="#FF7E88"/>
<path d="M797.656 222.239C797.579 222.239 797.502 222.217 797.444 222.172L775.871 206.033C775.781 205.967 775.743 205.856 775.768 205.756C775.801 205.656 775.89 205.578 776.006 205.55L818.876 197.072C818.972 197.05 819.081 197.072 819.158 197.133L840.724 213.15C840.814 213.217 840.859 213.328 840.827 213.428C840.801 213.528 840.705 213.611 840.59 213.634L797.726 222.233C797.726 222.233 797.675 222.239 797.656 222.239ZM776.77 205.972L797.739 221.661L839.826 213.217L818.863 197.65L776.77 205.972Z" fill="black"/>
<path d="M818.953 197.344L797.38 201.611V181.206L818.953 197.344Z" fill="#C41C28"/>
<path d="M797.38 201.889C797.309 201.889 797.239 201.867 797.181 201.828C797.104 201.778 797.059 201.695 797.059 201.611V181.206C797.059 181.095 797.13 181 797.245 180.95C797.361 180.906 797.495 180.922 797.592 180.995L819.164 197.133C819.254 197.2 819.293 197.311 819.267 197.411C819.235 197.511 819.145 197.589 819.03 197.617L797.457 201.883C797.457 201.883 797.412 201.889 797.386 201.889H797.38ZM797.701 181.811V201.261L818.266 197.195L797.701 181.811Z" fill="black"/>
<path d="M861.822 188.75L821.301 196.872L818.953 197.345L797.38 181.206L818.677 176.995L840.25 172.733L859.307 186.883L861.822 188.75Z" fill="#FF7E88"/>
<path d="M818.953 197.622C818.876 197.622 818.799 197.6 818.741 197.555L797.168 181.417C797.078 181.35 797.04 181.239 797.065 181.139C797.098 181.039 797.187 180.961 797.303 180.933L840.173 172.461C840.269 172.439 840.378 172.461 840.455 172.522L862.028 188.539C862.118 188.605 862.162 188.717 862.13 188.817C862.098 188.917 862.008 189 861.893 189.022L819.023 197.617C819.023 197.617 818.972 197.622 818.953 197.622ZM798.066 181.356L819.036 197.044L861.129 188.605L840.16 173.039L798.066 181.356Z" fill="black"/>
<path d="M840.25 172.733L818.677 176.994V156.594L840.25 172.733Z" fill="#C41C28"/>
<path d="M818.677 177.272C818.606 177.272 818.536 177.25 818.478 177.211C818.401 177.161 818.356 177.078 818.356 176.995V156.595C818.356 156.483 818.427 156.389 818.542 156.339C818.658 156.295 818.792 156.311 818.889 156.383L840.461 172.522C840.551 172.589 840.59 172.7 840.564 172.8C840.532 172.9 840.442 172.978 840.327 173.006L818.754 177.267C818.754 177.267 818.709 177.272 818.683 177.272H818.677ZM818.998 157.2V176.645L839.563 172.583L818.998 157.2Z" fill="black"/>
<path d="M883.107 164.139L842.463 172.289L840.25 172.733L818.677 156.594L836.13 153.144L861.527 148.122L872.025 155.917L876.908 159.539H876.914L883.107 164.139Z" fill="#FF7E88"/>
<path d="M840.25 173.011C840.173 173.011 840.096 172.989 840.038 172.944L818.465 156.806C818.375 156.739 818.337 156.628 818.362 156.528C818.394 156.428 818.484 156.35 818.6 156.322L861.45 147.85C861.546 147.828 861.656 147.85 861.733 147.911L877.081 159.306C877.081 159.306 877.107 159.322 877.12 159.328L883.312 163.928C883.402 163.994 883.447 164.106 883.414 164.206C883.389 164.306 883.293 164.389 883.177 164.411L840.32 173.006C840.32 173.006 840.269 173.011 840.25 173.011ZM819.363 156.744L840.333 172.433L882.413 163.994L876.735 159.778C876.735 159.778 876.709 159.761 876.696 159.756L861.437 148.428L819.363 156.744Z" fill="black"/>
<path d="M861.527 148.122L836.13 153.145V129.267L861.527 148.122Z" fill="#C41C28"/>
<path d="M836.13 153.422C836.06 153.422 835.989 153.4 835.931 153.361C835.854 153.311 835.809 153.228 835.809 153.145V129.267C835.809 129.156 835.88 129.061 835.995 129.017C836.111 128.972 836.246 128.989 836.335 129.056L861.733 147.911C861.822 147.978 861.867 148.089 861.835 148.189C861.803 148.289 861.713 148.372 861.598 148.395L836.201 153.417C836.201 153.417 836.156 153.422 836.13 153.422ZM836.451 129.872V152.8L860.834 147.978L836.451 129.872Z" fill="black"/>
<path d="M569.826 419.961V435.589L557.955 445.173V429.545L568.157 421.311L569.826 419.961Z" fill="white"/>
<path d="M557.955 445.45C557.91 445.45 557.871 445.445 557.826 445.428C557.711 445.384 557.634 445.284 557.634 445.172V429.545C557.634 429.467 557.672 429.395 557.737 429.339L569.607 419.756C569.704 419.684 569.838 419.661 569.954 419.706C570.069 419.75 570.146 419.85 570.146 419.961V435.589C570.146 435.667 570.108 435.739 570.044 435.795L558.173 445.378C558.115 445.428 558.032 445.45 557.955 445.45ZM558.276 429.667V444.534L569.505 435.467V420.6L558.276 429.667Z" fill="black"/>
<path d="M659.178 401.811V417.439L569.826 435.589V419.961L644.92 404.705L659.178 401.811Z" fill="#EBECEE"/>
<path d="M569.826 435.867C569.755 435.867 569.684 435.844 569.627 435.806C569.55 435.756 569.505 435.672 569.505 435.589V419.961C569.505 419.833 569.607 419.722 569.755 419.689L659.107 401.539C659.203 401.517 659.3 401.539 659.377 401.589C659.454 401.639 659.499 401.722 659.499 401.806V417.433C659.499 417.561 659.396 417.672 659.248 417.706L569.896 435.856C569.896 435.856 569.845 435.861 569.826 435.861V435.867ZM570.146 420.183V435.239L658.857 417.217V402.161L570.146 420.183Z" fill="black"/>
<path d="M682.329 404.683V420.311L659.178 417.439V401.811L663.111 402.3L679.069 404.278L682.329 404.683Z" fill="#B1B4BC"/>
<path d="M682.329 420.589C682.329 420.589 682.297 420.589 682.284 420.589L659.133 417.717C658.972 417.695 658.857 417.578 658.857 417.439V401.811C658.857 401.734 658.895 401.656 658.966 401.6C659.037 401.55 659.126 401.528 659.223 401.534L682.374 404.406C682.534 404.428 682.65 404.545 682.65 404.684V420.311C682.65 420.389 682.611 420.467 682.541 420.522C682.483 420.567 682.406 420.589 682.329 420.589ZM659.499 417.2L682.008 419.995V404.928L659.499 402.134V417.2Z" fill="black"/>
<path d="M712.327 398.434V414.061L682.329 420.311V404.684L701.72 400.645H701.727L710.517 398.811L712.327 398.434Z" fill="#EBECEE"/>
<path d="M682.329 420.589C682.258 420.589 682.188 420.567 682.13 420.528C682.053 420.478 682.008 420.395 682.008 420.311V404.683C682.008 404.556 682.111 404.445 682.252 404.411L701.643 400.372C701.643 400.372 701.662 400.372 701.675 400.372L712.25 398.167C712.346 398.145 712.449 398.167 712.526 398.217C712.603 398.267 712.648 398.35 712.648 398.433V414.061C712.648 414.189 712.545 414.3 712.404 414.333L682.406 420.583C682.406 420.583 682.355 420.589 682.329 420.589ZM682.65 404.9V419.956L712.006 413.839V398.783L701.804 400.911C701.804 400.911 701.784 400.911 701.772 400.911L682.65 404.895V404.9Z" fill="black"/>
<path d="M703.825 378.156L680.994 375.422L651.157 381.489L644.047 390.145L555.176 408.339L526.404 406.628L506.782 410.7L494.751 420.472L528.329 413.572L553.572 416.028L545.66 423.4L543.787 425.145L528.329 428.295L510.362 431.95L513.911 432.161L538.493 433.617L549.69 431.272L557.955 429.545L568.157 421.311L569.826 419.961L644.92 404.706L659.178 401.811L663.111 402.3L679.069 404.278L682.329 404.683L701.72 400.645L710.511 398.811L712.321 398.433L719.167 389.683L703.818 378.156H703.825ZM700.142 393.345L700.084 393.478L684.793 396.645L679.069 397.833L663.4 394.906L662.681 394.772L659.229 394.128L663.4 386.117L684.793 381.861L703.664 385.378L700.142 393.345Z" fill="white" stroke="black" stroke-width="0.5" stroke-linecap="round" stroke-linejoin="round"/>
<path d="M663.4 386.117V394.628L662.681 394.772L659.229 394.128L663.4 386.117Z" fill="white"/>
<path d="M662.681 395.05C662.681 395.05 662.636 395.05 662.611 395.044L659.158 394.4C659.062 394.383 658.985 394.328 658.94 394.256C658.895 394.183 658.895 394.094 658.94 394.017L663.111 386.006C663.175 385.889 663.323 385.822 663.47 385.85C663.618 385.878 663.721 385.989 663.721 386.122V394.633C663.721 394.761 663.618 394.872 663.47 394.906L662.752 395.05C662.752 395.05 662.7 395.056 662.681 395.056V395.05ZM659.685 393.928L662.681 394.489L663.079 394.411V387.411L659.685 393.933V393.928Z" fill="black"/>
<path d="M684.793 381.861V396.645L679.069 397.834L663.4 394.906V386.117L684.793 381.861Z" fill="#EBECEE"/>
<path d="M679.069 398.111C679.069 398.111 679.025 398.111 678.999 398.106L663.329 395.178C663.182 395.15 663.079 395.039 663.079 394.906V386.117C663.079 385.989 663.182 385.872 663.329 385.845L684.722 381.589C684.819 381.567 684.915 381.589 684.992 381.645C685.069 381.7 685.114 381.778 685.114 381.861V396.645C685.114 396.772 685.011 396.884 684.87 396.917L679.146 398.106C679.146 398.106 679.095 398.111 679.069 398.111ZM663.721 394.684L679.063 397.55L684.472 396.428V382.211L663.721 386.339V394.684Z" fill="black"/>
<path d="M703.664 385.378L700.142 393.344L700.084 393.478L684.793 396.644V381.861L703.664 385.378Z" fill="#B1B4BC"/>
<path d="M684.793 396.922C684.722 396.922 684.652 396.9 684.594 396.861C684.517 396.811 684.472 396.728 684.472 396.645V381.861C684.472 381.778 684.517 381.7 684.594 381.645C684.671 381.589 684.767 381.572 684.864 381.589L703.735 385.106C703.825 385.122 703.902 385.172 703.947 385.244C703.992 385.317 703.998 385.4 703.966 385.478L700.386 393.578C700.347 393.667 700.264 393.728 700.161 393.75L684.87 396.917C684.87 396.917 684.819 396.922 684.793 396.922ZM685.114 382.206V396.295L699.847 393.245L703.234 385.583L685.12 382.206H685.114Z" fill="black"/>
<path d="M553.572 416.028L545.66 423.4L543.787 425.145L528.329 428.294V413.572L553.572 416.028Z" fill="#B1B4BC"/>
<path d="M528.329 428.572C528.258 428.572 528.188 428.55 528.13 428.511C528.053 428.461 528.008 428.378 528.008 428.294V413.572C528.008 413.494 528.047 413.417 528.117 413.367C528.188 413.317 528.278 413.289 528.368 413.3L553.611 415.756C553.733 415.767 553.835 415.839 553.874 415.933C553.912 416.028 553.893 416.144 553.81 416.217L544.024 425.333C543.979 425.372 543.922 425.4 543.864 425.417L528.406 428.567C528.406 428.567 528.355 428.572 528.335 428.572H528.329ZM528.65 413.883V427.944L543.62 424.894L552.905 416.244L528.65 413.883Z" fill="black"/>
<path d="M528.329 413.572V428.294L510.362 431.95V432.889L494.751 436.094V420.472L528.329 413.572Z" fill="#EBECEE"/>
<path d="M494.751 436.372C494.68 436.372 494.609 436.35 494.552 436.311C494.475 436.261 494.43 436.178 494.43 436.095V420.472C494.43 420.345 494.532 420.233 494.674 420.2L528.252 413.3C528.348 413.278 528.451 413.3 528.522 413.35C528.599 413.4 528.643 413.483 528.643 413.567V428.289C528.643 428.417 528.541 428.528 528.393 428.561L510.677 432.167V432.883C510.677 433.011 510.574 433.122 510.433 433.156L494.821 436.361C494.821 436.361 494.77 436.367 494.744 436.367L494.751 436.372ZM495.071 420.695V435.745L510.042 432.672V431.956C510.042 431.828 510.144 431.717 510.292 431.683L528.008 428.078V413.928L495.071 420.695Z" fill="black"/>
<path d="M538.493 433.617V449.245L510.362 447.578V431.95L513.911 432.161L538.493 433.617Z" fill="#B1B4BC"/>
<path d="M538.493 449.522C538.493 449.522 538.48 449.522 538.474 449.522L510.343 447.856C510.176 447.845 510.042 447.722 510.042 447.578V431.95C510.042 431.872 510.08 431.8 510.144 431.745C510.208 431.689 510.298 431.661 510.388 431.672L538.519 433.339C538.686 433.35 538.82 433.472 538.82 433.617V449.245C538.82 449.322 538.782 449.395 538.718 449.45C538.66 449.5 538.583 449.522 538.499 449.522H538.493ZM510.683 447.317L538.172 448.945V433.872L510.683 432.245V447.317Z" fill="black"/>
<path d="M719.174 389.683V405.311L712.327 414.061V398.433L719.174 389.683Z" fill="white"/>
<path d="M712.327 414.339C712.327 414.339 712.263 414.339 712.231 414.328C712.096 414.295 712.006 414.183 712.006 414.061V398.433C712.006 398.378 712.025 398.322 712.064 398.278L718.91 389.528C718.987 389.428 719.135 389.378 719.27 389.417C719.404 389.45 719.494 389.561 719.494 389.683V405.311C719.494 405.367 719.475 405.422 719.437 405.467L712.59 414.217C712.532 414.295 712.43 414.339 712.327 414.339ZM712.648 398.517V413.156L718.853 405.228V390.589L712.648 398.517Z" fill="black"/>
<path d="M557.955 429.544V445.172L538.493 449.244V433.617L549.69 431.272L557.955 429.544Z" fill="#EBECEE"/>
<path d="M538.493 449.522C538.422 449.522 538.352 449.5 538.294 449.461C538.217 449.411 538.172 449.328 538.172 449.244V433.617C538.172 433.489 538.275 433.378 538.416 433.345L557.878 429.272C557.974 429.25 558.077 429.272 558.154 429.322C558.231 429.372 558.276 429.456 558.276 429.539V445.167C558.276 445.294 558.173 445.406 558.032 445.439L538.57 449.511C538.57 449.511 538.519 449.517 538.493 449.517V449.522ZM538.814 433.833V448.889L557.634 444.95V429.895L538.814 433.833Z" fill="black"/>
<path d="M662.219 435.995H629.847L613.664 447.478L625.06 455.567L629.847 458.961H662.219L667.006 455.567L678.402 447.478L662.219 435.995ZM652.498 452.167C650.586 452.606 648.378 452.85 646.03 452.85C643.681 452.85 641.481 452.606 639.568 452.167C635.513 451.25 632.773 449.495 632.773 447.478C632.773 444.511 638.709 442.106 646.03 442.106C653.351 442.106 659.293 444.511 659.293 447.478C659.293 449.495 656.553 451.25 652.498 452.167Z" fill="white" stroke="black" stroke-width="0.5" stroke-linecap="round" stroke-linejoin="round"/>
<path d="M629.847 458.961V475.134L613.664 463.65V447.478L625.06 455.567L629.847 458.961Z" fill="#B1B4BC"/>
<path d="M629.847 475.411C629.777 475.411 629.7 475.389 629.642 475.35L613.459 463.867C613.382 463.817 613.344 463.734 613.344 463.65V447.478C613.344 447.372 613.414 447.272 613.53 447.228C613.645 447.184 613.773 447.195 613.87 447.267L630.053 458.75C630.13 458.8 630.168 458.884 630.168 458.967V475.139C630.168 475.245 630.097 475.345 629.982 475.389C629.937 475.406 629.892 475.417 629.847 475.417V475.411ZM613.985 463.517L629.526 474.545V459.089L613.985 448.061V463.517Z" fill="black"/>
<path d="M662.219 458.961H629.847V475.134H662.219V458.961Z" fill="#EBECEE"/>
<path d="M662.219 475.411H629.847C629.668 475.411 629.526 475.289 629.526 475.134V458.961C629.526 458.806 629.668 458.684 629.847 458.684H662.219C662.399 458.684 662.54 458.806 662.54 458.961V475.134C662.54 475.289 662.399 475.411 662.219 475.411ZM630.168 474.856H661.898V459.239H630.168V474.856Z" fill="black"/>
<path d="M678.402 447.478V463.65L662.219 475.134V458.961L667.006 455.567L678.402 447.478Z" fill="white"/>
<path d="M662.219 475.411C662.174 475.411 662.123 475.4 662.084 475.384C661.975 475.339 661.898 475.239 661.898 475.134V458.961C661.898 458.878 661.943 458.8 662.014 458.745L678.197 447.261C678.293 447.195 678.428 447.178 678.537 447.223C678.646 447.267 678.723 447.367 678.723 447.473V463.645C678.723 463.728 678.678 463.806 678.607 463.861L662.425 475.345C662.367 475.384 662.296 475.406 662.219 475.406V475.411ZM662.54 459.095V474.55L678.081 463.523V448.067L662.54 459.095Z" fill="black"/>
<path d="M659.293 447.478C659.293 449.495 656.553 451.25 652.498 452.167C650.586 452.606 648.378 452.85 646.03 452.85C643.681 452.85 641.481 452.606 639.568 452.167C635.513 451.25 632.773 449.495 632.773 447.478C632.773 444.511 638.709 442.106 646.03 442.106C653.351 442.106 659.293 444.511 659.293 447.478Z" fill="#B1B4BC"/>
<path d="M646.03 453.128C643.72 453.128 641.461 452.889 639.485 452.433C635.147 451.45 632.452 449.556 632.452 447.478C632.452 444.311 638.413 441.828 646.03 441.828C653.647 441.828 659.614 444.311 659.614 447.478C659.614 449.556 656.919 451.456 652.581 452.433C650.612 452.889 648.346 453.128 646.03 453.128ZM646.03 442.383C638.895 442.383 633.094 444.667 633.094 447.478C633.094 449.289 635.609 450.983 639.652 451.9C643.495 452.783 648.584 452.783 652.421 451.9C656.464 450.983 658.979 449.289 658.979 447.478C658.979 444.667 653.172 442.383 646.036 442.383H646.03Z" fill="black"/>
<path d="M993.332 468.217L986.485 462.939L913.611 300.817L915.652 295.406L990.56 462.05L993.332 468.217Z" fill="#B1B4BC"/>
<path d="M993.332 468.495C993.255 468.495 993.178 468.472 993.12 468.422L986.274 463.145C986.235 463.117 986.203 463.078 986.19 463.039L913.316 300.917C913.291 300.856 913.291 300.789 913.316 300.728L915.357 295.317C915.402 295.206 915.517 295.128 915.652 295.128C915.774 295.128 915.909 295.195 915.96 295.306L993.64 468.117C993.691 468.239 993.64 468.372 993.525 468.445C993.467 468.478 993.403 468.495 993.339 468.495H993.332ZM986.755 462.778L992.549 467.245L915.678 296.233L913.951 300.811L986.755 462.778Z" fill="black"/>
<path d="M933.785 291.722L929.698 292.556L915.652 295.406L911.552 296.239L906.078 297.35L898.333 298.928L891.487 293.65L908.805 290.128L926.939 286.445L933.785 291.722Z" fill="white"/>
<path d="M898.333 299.211C898.256 299.211 898.179 299.189 898.122 299.139L891.275 293.861C891.185 293.795 891.147 293.683 891.179 293.583C891.211 293.483 891.301 293.406 891.416 293.383L926.868 286.178C926.971 286.156 927.08 286.178 927.157 286.239L934.004 291.517C934.093 291.583 934.132 291.695 934.1 291.795C934.068 291.895 933.978 291.972 933.862 291.995L898.41 299.2C898.41 299.2 898.359 299.206 898.34 299.206L898.333 299.211ZM892.16 293.8L898.423 298.628L933.112 291.578L926.849 286.75L892.16 293.8Z" fill="black"/>
<path d="M898.333 298.928L822.777 495.795L819.973 503.095L813.126 497.817L891.487 293.65L898.333 298.928Z" fill="#B1B4BC"/>
<path d="M819.973 503.378C819.896 503.378 819.819 503.356 819.761 503.306L812.915 498.028C812.818 497.956 812.78 497.839 812.825 497.733L891.185 293.567C891.217 293.478 891.301 293.411 891.41 293.383C891.512 293.361 891.628 293.383 891.705 293.445L898.552 298.722C898.648 298.795 898.686 298.911 898.641 299.017L823.085 495.883L820.281 503.183C820.249 503.272 820.166 503.339 820.056 503.367C820.031 503.372 819.999 503.378 819.973 503.378ZM813.499 497.733L819.825 502.611L822.476 495.711L897.968 299.017L891.641 294.139L813.499 497.733Z" fill="black"/>
<path d="M1011.62 464.233L993.332 468.217L990.56 462.05L915.652 295.406L929.698 292.556L933.785 291.722L1011.62 464.233Z" fill="#EBECEE"/>
<path d="M993.332 468.494C993.204 468.494 993.082 468.428 993.03 468.317L915.35 295.506C915.318 295.428 915.325 295.344 915.363 295.272C915.408 295.2 915.485 295.15 915.575 295.133L933.708 291.45C933.862 291.417 934.023 291.489 934.081 291.617L1011.91 464.128C1011.95 464.2 1011.94 464.283 1011.9 464.356C1011.86 464.428 1011.79 464.478 1011.7 464.5L993.409 468.483C993.409 468.483 993.358 468.489 993.332 468.489V468.494ZM916.088 295.606L993.531 467.889L1011.19 464.044L933.586 292.05L916.082 295.606H916.088Z" fill="black"/>
<path d="M915.652 295.406L913.611 300.817L838.793 499.144L819.973 503.094L822.777 495.794L898.333 298.928L906.078 297.35L911.552 296.239L915.652 295.406Z" fill="#EBECEE"/>
<path d="M819.973 503.378C819.883 503.378 819.8 503.345 819.736 503.289C819.659 503.217 819.633 503.111 819.665 503.011L822.469 495.711L898.025 298.845C898.057 298.75 898.147 298.683 898.256 298.661L915.575 295.139C915.69 295.117 915.806 295.145 915.883 295.222C915.96 295.295 915.986 295.4 915.954 295.495L839.095 499.233C839.063 499.328 838.973 499.395 838.864 499.417L820.044 503.367C820.044 503.367 819.992 503.372 819.967 503.372L819.973 503.378ZM898.584 299.167L823.085 495.883L820.461 502.711L838.543 498.917L915.171 295.795L898.584 299.167Z" fill="black"/>
<path d="M1076.31 472.55V484.144L1044.7 490.228V478.633L1063.94 474.928L1076.31 472.55Z" fill="#EBECEE"/>
<path d="M1044.7 490.505C1044.63 490.505 1044.56 490.483 1044.5 490.444C1044.42 490.394 1044.38 490.311 1044.38 490.228V478.633C1044.38 478.505 1044.48 478.389 1044.63 478.361L1076.24 472.278C1076.34 472.261 1076.43 472.278 1076.51 472.333C1076.59 472.383 1076.63 472.467 1076.63 472.55V484.144C1076.63 484.272 1076.53 484.389 1076.38 484.417L1044.77 490.5C1044.77 490.5 1044.72 490.505 1044.7 490.505ZM1045.02 478.855V489.883L1075.99 483.922V472.894L1045.02 478.855Z" fill="black"/>
<path d="M1076.31 472.55L1063.94 474.928L1044.7 478.633L994.866 441.422L982.526 432.211L1014 426.133L1076.31 472.55Z" fill="white"/>
<path d="M1044.7 478.911C1044.62 478.911 1044.54 478.889 1044.49 478.844L982.315 432.422C982.225 432.356 982.18 432.244 982.212 432.144C982.244 432.044 982.334 431.961 982.456 431.939L1013.93 425.861C1014.03 425.844 1014.13 425.861 1014.21 425.922L1076.52 472.339C1076.61 472.406 1076.65 472.517 1076.62 472.617C1076.59 472.717 1076.5 472.8 1076.38 472.822L1044.76 478.906C1044.76 478.906 1044.72 478.911 1044.69 478.911H1044.7ZM983.219 432.361L1044.79 478.333L1075.62 472.4L1013.92 426.433L983.226 432.361H983.219Z" fill="black"/>
<path d="M1044.7 478.633V490.228L982.526 443.805V432.211L994.866 441.422L1044.7 478.633Z" fill="#B1B4BC"/>
<path d="M1044.7 490.505C1044.62 490.505 1044.55 490.483 1044.49 490.439L982.315 444.017C982.244 443.961 982.206 443.889 982.206 443.805V432.211C982.206 432.1 982.276 432.005 982.392 431.961C982.507 431.917 982.642 431.933 982.732 432.005L1044.9 478.428C1044.97 478.483 1045.01 478.555 1045.01 478.639V490.233C1045.01 490.344 1044.94 490.439 1044.83 490.483C1044.78 490.5 1044.74 490.511 1044.69 490.511L1044.7 490.505ZM982.847 443.678L1044.38 489.622V478.761L982.847 432.817V443.678Z" fill="black"/>
<path d="M1059.1 434.689V446.283L1027.49 452.366V440.772L1046.73 437.066L1059.1 434.689Z" fill="#EBECEE"/>
<path d="M1027.49 452.644C1027.42 452.644 1027.35 452.622 1027.29 452.583C1027.21 452.533 1027.17 452.45 1027.17 452.367V440.772C1027.17 440.644 1027.27 440.528 1027.42 440.5L1059.03 434.417C1059.13 434.4 1059.22 434.417 1059.3 434.472C1059.38 434.522 1059.42 434.605 1059.42 434.689V446.283C1059.42 446.411 1059.32 446.528 1059.17 446.555L1027.56 452.639C1027.56 452.639 1027.51 452.644 1027.49 452.644ZM1027.81 440.994V452.022L1058.78 446.061V435.039L1027.81 441V440.994Z" fill="black"/>
<path d="M1059.1 434.689L1046.73 437.067L1027.49 440.772L977.656 403.561L965.317 394.35L996.791 388.272L1059.1 434.689Z" fill="white"/>
<path d="M1027.49 441.05C1027.41 441.05 1027.33 441.028 1027.28 440.983L965.105 394.561C965.015 394.494 964.97 394.383 965.003 394.283C965.035 394.183 965.124 394.1 965.246 394.078L996.72 388C996.816 387.983 996.925 388 996.996 388.061L1059.31 434.478C1059.4 434.544 1059.44 434.656 1059.41 434.756C1059.38 434.856 1059.29 434.939 1059.17 434.961L1027.55 441.044C1027.55 441.044 1027.51 441.05 1027.48 441.05H1027.49ZM966.01 394.5L1027.58 440.472L1058.41 434.539L996.707 388.572L966.016 394.5H966.01Z" fill="black"/>
<path d="M1027.49 440.772V452.367L965.317 405.944V394.35L977.656 403.561L1027.49 440.772Z" fill="#B1B4BC"/>
<path d="M1027.49 452.644C1027.41 452.644 1027.34 452.622 1027.28 452.578L965.105 406.156C965.035 406.1 964.996 406.028 964.996 405.944V394.35C964.996 394.239 965.067 394.144 965.182 394.1C965.298 394.056 965.432 394.072 965.522 394.144L1027.69 440.567C1027.76 440.622 1027.8 440.694 1027.8 440.778V452.372C1027.8 452.483 1027.73 452.578 1027.62 452.622C1027.57 452.639 1027.53 452.65 1027.48 452.65L1027.49 452.644ZM965.638 405.817L1027.17 451.761V440.9L965.638 394.955V405.817Z" fill="black"/>
<path d="M1040.51 396.433V408.028L1008.9 414.111V402.516L1028.14 398.811L1040.51 396.433Z" fill="#EBECEE"/>
<path d="M1008.9 414.389C1008.83 414.389 1008.76 414.366 1008.7 414.328C1008.62 414.278 1008.58 414.194 1008.58 414.111V402.517C1008.58 402.389 1008.68 402.272 1008.83 402.244L1040.44 396.161C1040.54 396.144 1040.64 396.161 1040.71 396.216C1040.79 396.266 1040.83 396.35 1040.83 396.433V408.028C1040.83 408.155 1040.73 408.272 1040.58 408.3L1008.97 414.383C1008.97 414.383 1008.92 414.389 1008.9 414.389ZM1009.22 402.739V413.767L1040.19 407.805V396.778L1009.22 402.739Z" fill="black"/>
<path d="M1040.51 396.433L1028.14 398.811L1008.9 402.517L959.067 365.305L946.728 356.094L978.202 350.017L1040.51 396.433Z" fill="white"/>
<path d="M1008.9 402.794C1008.82 402.794 1008.74 402.772 1008.69 402.728L946.516 356.305C946.426 356.239 946.381 356.128 946.413 356.028C946.446 355.928 946.535 355.844 946.657 355.822L978.131 349.744C978.227 349.728 978.33 349.744 978.407 349.806L1040.72 396.222C1040.81 396.289 1040.85 396.4 1040.82 396.5C1040.79 396.6 1040.7 396.683 1040.58 396.705L1008.96 402.789C1008.96 402.789 1008.92 402.794 1008.89 402.794H1008.9ZM947.421 356.244L1008.99 402.217L1039.82 396.283L978.118 350.317L947.427 356.244H947.421Z" fill="black"/>
<path d="M1008.9 402.516V414.111L946.728 367.689V356.094L959.067 365.305L1008.9 402.516Z" fill="#B1B4BC"/>
<path d="M1008.9 414.389C1008.82 414.389 1008.75 414.367 1008.69 414.322L946.516 367.9C946.445 367.844 946.407 367.772 946.407 367.689V356.094C946.407 355.983 946.478 355.889 946.593 355.844C946.709 355.8 946.843 355.817 946.933 355.889L1009.1 402.311C1009.17 402.367 1009.21 402.439 1009.21 402.522V414.117C1009.21 414.228 1009.14 414.322 1009.03 414.367C1008.98 414.383 1008.94 414.394 1008.89 414.394L1008.9 414.389ZM947.049 367.561L1008.58 413.505V402.644L947.049 356.7V367.561Z" fill="black"/>
<path d="M1022.51 358.022V369.616L990.894 375.7V364.105L1010.14 360.4L1022.51 358.022Z" fill="#EBECEE"/>
<path d="M990.894 375.978C990.823 375.978 990.753 375.955 990.695 375.916C990.618 375.866 990.573 375.783 990.573 375.7V364.105C990.573 363.978 990.676 363.861 990.823 363.833L1022.44 357.75C1022.53 357.733 1022.63 357.75 1022.71 357.805C1022.78 357.855 1022.83 357.939 1022.83 358.022V369.616C1022.83 369.744 1022.73 369.861 1022.58 369.889L990.964 375.972C990.964 375.972 990.919 375.978 990.894 375.978ZM991.215 364.328V375.355L1022.19 369.394V358.366L991.215 364.328Z" fill="black"/>
<path d="M1022.51 358.022L1010.14 360.4L990.894 364.105L941.062 326.894L928.723 317.683L960.196 311.605L1022.51 358.022Z" fill="white"/>
<path d="M990.894 364.383C990.817 364.383 990.74 364.361 990.682 364.317L928.511 317.894C928.421 317.828 928.376 317.717 928.408 317.617C928.44 317.517 928.53 317.433 928.652 317.411L960.126 311.333C960.229 311.317 960.325 311.333 960.402 311.394L1022.71 357.811C1022.8 357.878 1022.85 357.989 1022.82 358.089C1022.78 358.189 1022.69 358.272 1022.57 358.294L990.958 364.378C990.958 364.378 990.913 364.383 990.887 364.383H990.894ZM929.416 317.833L990.984 363.805L1021.82 357.872L960.113 311.905L929.422 317.833H929.416Z" fill="black"/>
<path d="M990.894 364.105V375.7L928.723 329.278V317.683L941.062 326.894L990.894 364.105Z" fill="#B1B4BC"/>
<path d="M990.894 375.978C990.817 375.978 990.746 375.955 990.682 375.911L928.511 329.489C928.44 329.433 928.402 329.361 928.402 329.278V317.683C928.402 317.572 928.472 317.478 928.588 317.433C928.703 317.389 928.838 317.405 928.928 317.478L991.099 363.9C991.17 363.955 991.208 364.028 991.208 364.111V375.705C991.208 375.817 991.138 375.911 991.022 375.955C990.977 375.972 990.932 375.983 990.887 375.983L990.894 375.978ZM929.043 329.15L990.573 375.094V364.233L929.043 318.289V329.15Z" fill="black"/>
<path d="M888.561 468.061V479.656L826.39 433.233V421.639L838.729 430.85L888.561 468.061Z" fill="#B1B4BC"/>
<path d="M888.554 479.933C888.477 479.933 888.407 479.911 888.343 479.867L826.172 433.445C826.101 433.389 826.062 433.317 826.062 433.233V421.639C826.062 421.528 826.133 421.433 826.249 421.389C826.364 421.345 826.499 421.361 826.589 421.433L888.76 467.856C888.83 467.911 888.869 467.983 888.869 468.067V479.661C888.869 479.772 888.798 479.867 888.683 479.911C888.638 479.928 888.593 479.939 888.548 479.939L888.554 479.933ZM826.711 433.106L888.24 479.05V468.189L826.711 422.245V433.106Z" fill="black"/>
<path d="M920.182 461.978V473.572L888.561 479.656V468.061L907.811 464.356L920.182 461.978Z" fill="#EBECEE"/>
<path d="M888.554 479.933C888.484 479.933 888.413 479.911 888.355 479.872C888.278 479.822 888.234 479.739 888.234 479.656V468.061C888.234 467.933 888.336 467.817 888.484 467.789L920.105 461.706C920.201 461.689 920.298 461.706 920.375 461.761C920.452 461.811 920.497 461.895 920.497 461.978V473.572C920.497 473.7 920.394 473.817 920.246 473.844L888.625 479.928C888.625 479.928 888.58 479.933 888.554 479.933ZM888.875 468.283V479.311L919.855 473.35V462.322L888.875 468.283Z" fill="black"/>
<path d="M920.182 461.978L907.811 464.356L888.561 468.061L838.729 430.85L826.39 421.639L857.87 415.561L920.182 461.978Z" fill="white"/>
<path d="M888.554 468.339C888.477 468.339 888.4 468.317 888.343 468.272L826.171 421.85C826.082 421.783 826.037 421.672 826.069 421.572C826.101 421.472 826.191 421.389 826.313 421.367L857.793 415.289C857.895 415.272 857.992 415.289 858.069 415.35L920.381 461.767C920.471 461.833 920.516 461.945 920.484 462.045C920.452 462.145 920.362 462.228 920.24 462.25L888.618 468.333C888.618 468.333 888.574 468.339 888.548 468.339H888.554ZM827.083 421.789L888.651 467.761L919.489 461.828L857.786 415.861L827.089 421.789H827.083Z" fill="black"/>
<path d="M870.382 513.156V524.745L808.211 478.328V466.733L820.544 475.945L870.382 513.156Z" fill="#B1B4BC"/>
<path d="M870.376 525.022C870.299 525.022 870.228 525 870.164 524.955L807.993 478.539C807.922 478.483 807.884 478.411 807.884 478.328V466.733C807.884 466.622 807.955 466.528 808.07 466.483C808.186 466.439 808.32 466.455 808.41 466.528L870.581 512.95C870.652 513.005 870.69 513.078 870.69 513.161V524.75C870.69 524.861 870.62 524.955 870.504 525C870.459 525.017 870.414 525.028 870.37 525.028L870.376 525.022ZM808.532 478.2L870.061 524.139V513.283L808.532 467.339V478.2Z" fill="black"/>
<path d="M901.997 507.072V518.666L870.382 524.744V513.155L889.626 509.45L901.997 507.072Z" fill="#EBECEE"/>
<path d="M870.376 525.022C870.305 525.022 870.235 525 870.177 524.961C870.1 524.911 870.055 524.828 870.055 524.744V513.155C870.055 513.028 870.158 512.911 870.305 512.883L901.92 506.8C902.016 506.783 902.113 506.8 902.19 506.855C902.267 506.905 902.312 506.989 902.312 507.072V518.667C902.312 518.794 902.209 518.911 902.061 518.939L870.447 525.017C870.447 525.017 870.402 525.022 870.376 525.022ZM870.697 513.378V524.4L901.67 518.444V507.422L870.697 513.383V513.378Z" fill="black"/>
<path d="M901.997 507.072L889.626 509.45L870.382 513.156L820.544 475.944L808.211 466.733L839.685 460.656L901.997 507.072Z" fill="white"/>
<path d="M870.376 513.433C870.299 513.433 870.228 513.411 870.164 513.367L807.993 466.944C807.903 466.878 807.858 466.767 807.89 466.667C807.923 466.567 808.012 466.483 808.134 466.461L839.608 460.383C839.704 460.367 839.807 460.383 839.884 460.444L902.196 506.861C902.286 506.928 902.331 507.039 902.299 507.139C902.267 507.239 902.177 507.322 902.055 507.344L870.44 513.428C870.44 513.428 870.395 513.433 870.37 513.433H870.376ZM808.904 466.883L870.472 512.856L901.304 506.922L839.602 460.955L808.911 466.883H808.904Z" fill="black"/>
<path d="M955.185 371.672V383.267L923.57 389.35V377.755L942.814 374.05L955.185 371.672Z" fill="#EBECEE"/>
<path d="M923.57 389.628C923.499 389.628 923.429 389.605 923.371 389.567C923.294 389.517 923.249 389.433 923.249 389.35V377.756C923.249 377.628 923.352 377.511 923.499 377.483L955.114 371.4C955.211 371.383 955.307 371.4 955.384 371.456C955.461 371.506 955.506 371.589 955.506 371.672V383.267C955.506 383.394 955.403 383.511 955.256 383.539L923.641 389.622C923.641 389.622 923.596 389.628 923.57 389.628ZM923.891 377.978V389.006L954.864 383.044V372.017L923.891 377.978Z" fill="black"/>
<path d="M955.185 371.672L942.814 374.05L923.57 377.756L873.738 340.544L861.399 331.333L892.873 325.256L955.185 371.672Z" fill="white"/>
<path d="M923.57 378.033C923.493 378.033 923.422 378.011 923.358 377.967L861.187 331.545C861.097 331.478 861.052 331.367 861.085 331.267C861.117 331.167 861.206 331.083 861.328 331.061L892.802 324.983C892.898 324.967 893.001 324.983 893.078 325.045L955.39 371.461C955.48 371.528 955.525 371.639 955.493 371.739C955.461 371.839 955.371 371.922 955.249 371.945L923.634 378.028C923.634 378.028 923.589 378.033 923.564 378.033H923.57ZM862.086 331.483L923.653 377.456L954.486 371.522L892.783 325.556L862.092 331.483H862.086Z" fill="black"/>
<path d="M923.57 377.755V389.35L861.399 342.928V331.333L873.738 340.544L923.57 377.755Z" fill="#B1B4BC"/>
<path d="M923.57 389.628C923.493 389.628 923.422 389.606 923.358 389.561L861.187 343.139C861.117 343.083 861.078 343.011 861.078 342.928V331.333C861.078 331.222 861.149 331.128 861.264 331.083C861.38 331.039 861.515 331.056 861.604 331.128L923.775 377.55C923.846 377.606 923.884 377.678 923.884 377.761V389.356C923.884 389.467 923.814 389.561 923.698 389.606C923.654 389.622 923.609 389.633 923.564 389.633L923.57 389.628ZM861.713 342.8L923.243 388.744V377.883L861.713 331.939V342.8Z" fill="black"/>
<path d="M937.898 416.578L925.527 418.956L906.277 422.661L856.439 385.45L844.106 376.239L875.586 370.161L937.898 416.578Z" fill="white"/>
<path d="M906.277 422.939C906.2 422.939 906.13 422.917 906.065 422.872L843.894 376.45C843.805 376.383 843.76 376.272 843.792 376.172C843.824 376.072 843.914 375.989 844.035 375.967L875.516 369.889C875.618 369.872 875.715 369.889 875.792 369.95L938.104 416.367C938.194 416.433 938.239 416.544 938.207 416.644C938.174 416.744 938.085 416.828 937.963 416.85L906.341 422.933C906.341 422.933 906.296 422.939 906.271 422.939H906.277ZM844.799 376.389L906.367 422.361L937.205 416.428L875.503 370.461L844.805 376.389H844.799Z" fill="black"/>
<path d="M937.898 416.578V428.172L906.277 434.25V422.661L925.527 418.955L937.898 416.578Z" fill="#EBECEE"/>
<path d="M906.277 434.528C906.207 434.528 906.136 434.505 906.078 434.467C906.001 434.417 905.956 434.333 905.956 434.25V422.661C905.956 422.533 906.059 422.417 906.207 422.389L937.828 416.305C937.924 416.289 938.02 416.305 938.097 416.361C938.174 416.411 938.219 416.494 938.219 416.578V428.172C938.219 428.3 938.117 428.417 937.969 428.444L906.348 434.522C906.348 434.522 906.303 434.528 906.277 434.528ZM906.598 422.883V433.905L937.578 427.95V416.922L906.598 422.883Z" fill="black"/>
<path d="M906.277 422.661V434.25L844.106 387.833V376.239L856.439 385.45L906.277 422.661Z" fill="#B1B4BC"/>
<path d="M906.277 434.528C906.2 434.528 906.13 434.506 906.065 434.461L843.894 388.044C843.824 387.989 843.785 387.917 843.785 387.833V376.239C843.785 376.128 843.856 376.033 843.971 375.989C844.087 375.944 844.222 375.961 844.311 376.033L906.482 422.456C906.553 422.511 906.592 422.583 906.592 422.667V434.256C906.592 434.367 906.521 434.461 906.405 434.506C906.361 434.522 906.316 434.533 906.271 434.533L906.277 434.528ZM844.427 387.706L905.956 433.644V422.789L844.427 376.844V387.706Z" fill="black"/>
<path d="M1049.98 509.9L1043.13 504.622L970.258 342.5L972.298 337.089L1047.21 503.733L1049.98 509.9Z" fill="#B1B4BC"/>
<path d="M1049.98 510.178C1049.9 510.178 1049.82 510.156 1049.77 510.106L1042.92 504.828C1042.88 504.8 1042.85 504.761 1042.84 504.722L969.963 342.6C969.937 342.539 969.937 342.472 969.963 342.411L972.003 337C972.048 336.889 972.163 336.811 972.298 336.811C972.439 336.795 972.555 336.878 972.606 336.989L1050.29 509.8C1050.34 509.922 1050.29 510.056 1050.17 510.128C1050.11 510.161 1050.05 510.178 1049.98 510.178H1049.98ZM1043.4 504.461L1049.2 508.928L972.324 337.917L970.598 342.495L1043.4 504.461Z" fill="black"/>
<path d="M990.432 333.405L986.344 334.239L972.298 337.089L968.198 337.922L962.725 339.033L954.98 340.611L948.133 335.333L965.452 331.811L983.585 328.128L990.432 333.405Z" fill="white"/>
<path d="M954.973 340.889C954.896 340.889 954.819 340.867 954.761 340.817L947.915 335.539C947.825 335.472 947.787 335.361 947.819 335.261C947.851 335.161 947.941 335.083 948.056 335.061L983.508 327.856C983.611 327.833 983.72 327.856 983.797 327.917L990.643 333.194C990.733 333.261 990.772 333.372 990.74 333.472C990.708 333.572 990.618 333.65 990.502 333.672L955.05 340.878C955.05 340.878 954.999 340.883 954.98 340.883L954.973 340.889ZM948.807 335.483L955.069 340.311L989.758 333.261L983.495 328.433L948.807 335.483Z" fill="black"/>
<path d="M954.98 340.611L879.423 537.478L876.619 544.778L869.773 539.5L948.133 335.333L954.98 340.611Z" fill="#B1B4BC"/>
<path d="M876.619 545.056C876.542 545.056 876.465 545.033 876.408 544.983L869.561 539.706C869.465 539.633 869.426 539.517 869.471 539.411L947.832 335.245C947.864 335.156 947.947 335.089 948.056 335.061C948.159 335.039 948.274 335.061 948.351 335.122L955.198 340.4C955.294 340.472 955.333 340.589 955.288 340.694L876.927 544.861C876.895 544.95 876.812 545.017 876.703 545.044C876.677 545.05 876.645 545.056 876.619 545.056ZM870.139 539.417L876.465 544.294L879.115 537.394L954.608 340.7L948.281 335.822L870.139 539.417Z" fill="black"/>
<path d="M1068.27 505.917L1049.98 509.9L1047.21 503.733L972.298 337.089L986.344 334.239L990.432 333.406L1068.27 505.917Z" fill="#EBECEE"/>
<path d="M1049.98 510.178C1049.85 510.178 1049.73 510.111 1049.68 510L971.997 337.189C971.965 337.111 971.971 337.028 972.009 336.956C972.054 336.883 972.131 336.833 972.221 336.817L990.355 333.133C990.509 333.1 990.669 333.172 990.727 333.3L1068.56 505.811C1068.59 505.883 1068.59 505.967 1068.55 506.039C1068.5 506.111 1068.43 506.161 1068.34 506.183L1050.06 510.167C1050.06 510.167 1050 510.172 1049.98 510.172V510.178ZM972.728 337.289L1050.17 509.572L1067.83 505.728L990.226 333.733L972.722 337.289H972.728Z" fill="black"/>
<path d="M972.298 337.089L970.258 342.5L895.439 540.828L876.619 544.778L879.423 537.478L954.98 340.611L962.725 339.033L968.198 337.922L972.298 337.089Z" fill="#EBECEE"/>
<path d="M876.619 545.055C876.53 545.055 876.446 545.022 876.382 544.967C876.305 544.894 876.279 544.789 876.311 544.689L879.116 537.389L954.672 340.522C954.704 340.428 954.794 340.361 954.903 340.339L972.221 336.817C972.337 336.794 972.452 336.828 972.529 336.9C972.606 336.972 972.632 337.078 972.6 337.172L970.559 342.583L895.741 540.911C895.709 541.006 895.619 541.072 895.51 541.094L876.69 545.044C876.69 545.044 876.639 545.05 876.613 545.05L876.619 545.055ZM955.224 340.844L879.725 537.561L877.107 544.383L895.189 540.589L971.817 337.467L955.23 340.839L955.224 340.844Z" fill="black"/>
<path d="M942.39 332.572V343.172L880.219 296.75V286.15L891.371 294.478L942.39 332.572Z" fill="#B1B4BC"/>
<path d="M942.39 343.45C942.313 343.45 942.242 343.428 942.178 343.383L880.007 296.961C879.937 296.906 879.898 296.833 879.898 296.75V286.15C879.898 286.039 879.969 285.944 880.084 285.9C880.2 285.856 880.334 285.872 880.424 285.944L942.595 332.367C942.666 332.422 942.704 332.494 942.704 332.578V343.178C942.704 343.289 942.634 343.383 942.518 343.428C942.473 343.444 942.428 343.456 942.384 343.456L942.39 343.45ZM880.533 296.622L942.063 342.567V332.7L880.533 286.756V296.622Z" fill="black"/>
<path d="M1002.21 320.411V331.011L942.39 343.172V332.572L991.028 322.683L1002.21 320.411Z" fill="#EBECEE"/>
<path d="M942.39 343.45C942.32 343.45 942.249 343.428 942.191 343.389C942.114 343.339 942.069 343.256 942.069 343.172V332.572C942.069 332.445 942.172 332.333 942.32 332.3L1002.14 320.139C1002.23 320.117 1002.33 320.139 1002.41 320.189C1002.48 320.239 1002.53 320.322 1002.53 320.406V331.006C1002.53 331.133 1002.42 331.245 1002.28 331.278L942.461 343.439C942.461 343.439 942.409 343.445 942.39 343.445V343.45ZM942.711 332.795V342.822L1001.89 330.789V320.761L942.711 332.795Z" fill="black"/>
<path d="M1002.21 320.411L991.028 322.683L942.39 332.572L891.371 294.478L880.219 286.15L939.894 273.989L1002.21 320.411Z" fill="white"/>
<path d="M942.39 332.85C942.313 332.85 942.243 332.828 942.178 332.783L880.007 286.361C879.917 286.294 879.879 286.183 879.905 286.083C879.93 285.983 880.027 285.906 880.142 285.878L939.817 273.717C939.913 273.694 940.022 273.717 940.099 273.778L1002.41 320.2C1002.5 320.267 1002.54 320.378 1002.51 320.478C1002.49 320.578 1002.39 320.656 1002.28 320.683L942.461 332.844C942.461 332.844 942.409 332.85 942.39 332.85ZM880.899 286.294L942.474 332.267L1001.51 320.261L939.804 274.289L880.899 286.294Z" fill="black"/>
</svg>
