<svg width="92" height="92" viewBox="0 0 92 92" fill="none" xmlns="http://www.w3.org/2000/svg">
<path d="M0 35.7778C0 16.0183 16.0183 0 35.7778 0H56.2222C75.9817 0 92 16.0183 92 35.7778V56.2222C92 75.9817 75.9817 92 56.2222 92H35.7778C16.0183 92 0 75.9817 0 56.2222V35.7778Z" fill="#FF444F"/>
<path d="M57.7138 19.0602L54.7473 35.8837H44.4497C34.8427 35.8837 25.6857 43.6672 23.9885 53.2741L23.2701 57.3632C21.5808 66.9703 27.9907 74.7539 37.5977 74.7539H46.1864C53.1884 74.7539 59.8588 69.0858 61.0903 62.084L69 17.2459L57.7138 19.0602ZM50.4071 60.4972C50.0282 62.6602 48.0809 64.4207 45.918 64.4207H40.7001C36.382 64.4207 33.4929 60.9155 34.2506 56.5896L34.7006 54.0399C35.4663 49.7218 39.587 46.209 43.905 46.209H52.9266L50.4071 60.4972Z" fill="white"/>
</svg>
